<svg width="41" height="41" viewBox="0 0 41 41" fill="none" xmlns="http://www.w3.org/2000/svg">
<path d="M32.486 5.12378C33.3701 5.12378 34.2179 5.47497 34.843 6.10009C35.4681 6.72521 35.8193 7.57306 35.8193 8.45711V31.7904C35.8193 32.6745 35.4681 33.5223 34.843 34.1475C34.2179 34.7726 33.3701 35.1238 32.486 35.1238H9.15267C8.26861 35.1238 7.42077 34.7726 6.79565 34.1475C6.17053 33.5223 5.81934 32.6745 5.81934 31.7904V8.45711C5.81934 7.57306 6.17053 6.72521 6.79565 6.10009C7.42077 5.47497 8.26861 5.12378 9.15267 5.12378H32.486ZM31.6527 30.9571V22.1238C31.6527 20.6828 31.0802 19.3008 30.0613 18.2818C29.0423 17.2629 27.6603 16.6904 26.2193 16.6904C24.8027 16.6904 23.1527 17.5571 22.3527 18.8571V17.0071H17.7027V30.9571H22.3527V22.7404C22.3527 21.4571 23.386 20.4071 24.6693 20.4071C25.2882 20.4071 25.8817 20.6529 26.3193 21.0905C26.7568 21.5281 27.0027 22.1216 27.0027 22.7404V30.9571H31.6527ZM12.286 14.3904C13.0286 14.3904 13.7408 14.0954 14.2659 13.5703C14.791 13.0452 15.086 12.3331 15.086 11.5904C15.086 10.0404 13.836 8.77378 12.286 8.77378C11.539 8.77378 10.8225 9.07053 10.2943 9.59876C9.76609 10.127 9.46934 10.8434 9.46934 11.5904C9.46934 13.1404 10.736 14.3904 12.286 14.3904ZM14.6027 30.9571V17.0071H9.986V30.9571H14.6027Z" fill="white"/>
</svg>
