<svg width="41" height="40" viewBox="0 0 41 40" fill="none" xmlns="http://www.w3.org/2000/svg">
<path d="M20.5663 3.46021C11.5708 3.46021 4.21083 10.8038 4.21083 19.8484C4.21083 28.0262 10.1969 34.8137 18.0149 36.0404V24.5915H13.8606V19.8484H18.0149V16.2338C18.0149 12.1286 20.4518 9.87156 24.1973 9.87156C25.98 9.87156 27.8445 10.1823 27.8445 10.1823V14.2221H25.7837C23.7557 14.2221 23.1178 15.4815 23.1178 16.7736V19.8484H27.6646L26.9286 24.5915H23.1178V36.0404C26.9719 35.4317 30.4814 33.4652 33.0127 30.4959C35.5441 27.5267 36.9306 23.7503 36.9218 19.8484C36.9218 10.8038 29.5619 3.46021 20.5663 3.46021Z" fill="white"/>
</svg>
