<svg width="41" height="40" viewBox="0 0 41 40" fill="none" xmlns="http://www.w3.org/2000/svg">
<path d="M17.235 24.6568L25.7235 19.7501L17.235 14.8435V24.6568ZM36.142 11.8504C36.3546 12.6191 36.5018 13.6495 36.5999 14.958C36.7144 16.2664 36.7635 17.3949 36.7635 18.3763L36.8616 19.7501C36.8616 23.332 36.5999 25.9652 36.142 27.6498C35.7331 29.1218 34.7845 30.0704 33.3125 30.4793C32.5438 30.6919 31.1372 30.8391 28.9783 30.9373C26.8521 31.0518 24.9057 31.1008 23.1066 31.1008L20.5061 31.199C13.6532 31.199 9.38438 30.9373 7.69976 30.4793C6.22777 30.0704 5.27915 29.1218 4.87026 27.6498C4.65764 26.8811 4.51044 25.8507 4.41231 24.5423C4.29782 23.2338 4.24875 22.1053 4.24875 21.124L4.15062 19.7501C4.15062 16.1683 4.41231 13.535 4.87026 11.8504C5.27915 10.3784 6.22777 9.4298 7.69976 9.02091C8.46847 8.80829 9.87504 8.66109 12.034 8.56296C14.1602 8.44847 16.1065 8.3994 17.9056 8.3994L20.5061 8.30127C27.3591 8.30127 31.6279 8.56296 33.3125 9.02091C34.7845 9.4298 35.7331 10.3784 36.142 11.8504Z" fill="white"/>
</svg>
