<svg width="40" height="40" viewBox="0 0 40 40" fill="none" xmlns="http://www.w3.org/2000/svg">
<path d="M21.3079 3.39478C23.1479 3.39968 24.0818 3.4095 24.8881 3.43239L25.2054 3.44384C25.5718 3.45693 25.9333 3.47328 26.3699 3.49291C28.1102 3.57469 29.2976 3.84946 30.3394 4.25344C31.4189 4.66887 32.3283 5.2315 33.2376 6.13923C34.0696 6.95657 34.7132 7.94565 35.1234 9.03742C35.5274 10.0793 35.8022 11.2667 35.8839 13.0085C35.9036 13.4436 35.9199 13.805 35.933 14.173L35.9428 14.4903C35.9674 15.295 35.9772 16.2289 35.9804 18.0689L35.9821 19.289V21.4316C35.9861 22.6246 35.9735 23.8176 35.9445 25.0102L35.9346 25.3275C35.9216 25.6955 35.9052 26.057 35.8856 26.492C35.8038 28.2339 35.5258 29.4196 35.1234 30.4631C34.7132 31.5549 34.0696 32.544 33.2376 33.3613C32.4203 34.1933 31.4312 34.8369 30.3394 35.2471C29.2976 35.6511 28.1102 35.9259 26.3699 36.0076L25.2054 36.0567L24.8881 36.0665C24.0818 36.0894 23.1479 36.1009 21.3079 36.1041L20.0878 36.1058H17.9469C16.7533 36.11 15.5598 36.0974 14.3666 36.0682L14.0494 36.0583C13.6611 36.0436 13.2729 36.0267 12.8848 36.0076C11.1446 35.9259 9.95721 35.6511 8.91373 35.2471C7.82254 34.8367 6.83403 34.1931 6.01717 33.3613C5.18458 32.5441 4.54044 31.555 4.12974 30.4631C3.72576 29.4213 3.45099 28.2339 3.36921 26.492L3.32015 25.3275L3.31197 25.0102C3.28182 23.8176 3.26819 22.6246 3.27108 21.4316V18.0689C3.26655 16.876 3.27855 15.683 3.30706 14.4903L3.31851 14.173C3.33159 13.805 3.34795 13.4436 3.36758 13.0085C3.44935 11.2667 3.72413 10.0809 4.12811 9.03742C4.53977 7.9452 5.18504 6.95608 6.0188 6.13923C6.83519 5.30763 7.82312 4.66408 8.91373 4.25344C9.95721 3.84946 11.143 3.57469 12.8848 3.49291C13.3199 3.47328 13.683 3.45693 14.0494 3.44384L14.3666 3.43403C15.5593 3.40497 16.7523 3.39243 17.9452 3.39641L21.3079 3.39478ZM19.6266 11.5725C17.4577 11.5725 15.3777 12.4341 13.844 13.9677C12.3104 15.5014 11.4488 17.5814 11.4488 19.7503C11.4488 21.9191 12.3104 23.9992 13.844 25.5328C15.3777 27.0664 17.4577 27.928 19.6266 27.928C21.7955 27.928 23.8755 27.0664 25.4091 25.5328C26.9427 23.9992 27.8043 21.9191 27.8043 19.7503C27.8043 17.5814 26.9427 15.5014 25.4091 13.9677C23.8755 12.4341 21.7955 11.5725 19.6266 11.5725ZM19.6266 14.8436C20.2709 14.8435 20.909 14.9703 21.5043 15.2168C22.0997 15.4633 22.6406 15.8246 23.0963 16.2802C23.552 16.7357 23.9136 17.2766 24.1602 17.8718C24.4069 18.4671 24.5339 19.1051 24.534 19.7495C24.5342 20.3938 24.4073 21.0319 24.1609 21.6272C23.9144 22.2226 23.553 22.7635 23.0975 23.2192C22.642 23.6749 22.1011 24.0364 21.5058 24.2831C20.9106 24.5298 20.2726 24.6568 19.6282 24.6569C18.3269 24.6569 17.0789 24.14 16.1587 23.2198C15.2385 22.2996 14.7216 21.0516 14.7216 19.7503C14.7216 18.4489 15.2385 17.2009 16.1587 16.2807C17.0789 15.3606 18.3269 14.8436 19.6282 14.8436M28.2148 9.1192C27.6726 9.1192 27.1526 9.3346 26.7692 9.718C26.3858 10.1014 26.1704 10.6214 26.1704 11.1636C26.1704 11.7059 26.3858 12.2259 26.7692 12.6093C27.1526 12.9927 27.6726 13.2081 28.2148 13.2081C28.7571 13.2081 29.2771 12.9927 29.6605 12.6093C30.0439 12.2259 30.2593 11.7059 30.2593 11.1636C30.2593 10.6214 30.0439 10.1014 29.6605 9.718C29.2771 9.3346 28.7571 9.1192 28.2148 9.1192Z" fill="white"/>
</svg>
